<svg width="327" height="350" viewBox="0 0 327 350" fill="none" xmlns="http://www.w3.org/2000/svg">
<path d="M2.58789 189.444C2.58789 231.878 19.445 272.575 49.4508 302.581C79.4566 332.587 120.153 349.444 162.588 349.444C205.023 349.444 245.719 332.587 275.725 302.581C305.731 272.575 322.588 231.878 322.588 189.444C322.588 147.009 305.731 106.313 275.725 76.3068C245.719 46.3009 205.023 29.4438 162.588 29.4438C120.153 29.4438 79.4566 46.3009 49.4508 76.3068C19.445 106.313 2.58789 147.009 2.58789 189.444V189.444Z" fill="#E7E7E7"/>
<path d="M0.208008 312.352C0.208008 314.018 16.666 315.617 45.9614 316.795C75.2569 317.974 114.99 318.636 156.42 318.636C197.85 318.636 237.583 317.974 266.879 316.795C296.174 315.617 312.632 314.018 312.632 312.352C312.632 310.685 296.174 309.087 266.879 307.908C237.583 306.73 197.85 306.068 156.42 306.068C114.99 306.068 75.2569 306.73 45.9614 307.908C16.666 309.087 0.208008 310.685 0.208008 312.352V312.352Z" fill="#B9B9B9"/>
<path d="M192.096 282.636C181.092 282.636 167.604 320.928 128.868 304.944C110.488 297.344 74.9279 320.252 61.3559 298.144C60.5559 296.844 59.6079 295.172 59.6079 295.172C89.0719 297.952 81.4799 274.032 116.008 281.428C117.829 281.782 119.707 281.718 121.5 281.243C123.294 280.768 124.957 279.893 126.364 278.684C127.785 277.499 128.931 276.017 129.72 274.343C130.509 272.669 130.922 270.843 130.932 268.992C130.94 267.201 130.595 265.425 129.915 263.768C129.235 262.11 128.235 260.604 126.971 259.334C125.708 258.064 124.205 257.057 122.551 256.369C120.897 255.682 119.123 255.328 117.332 255.328H110.656C98.8254 255.314 87.4833 250.609 79.1172 242.244C70.751 233.88 66.0438 222.538 66.0279 210.708C66.0394 204.838 67.2353 199.031 69.544 193.634C71.8527 188.237 75.2267 183.362 79.4639 179.3C81.1631 177.682 82.3918 175.633 83.0194 173.372C83.6469 171.111 83.6499 168.723 83.0279 166.46C81.5839 161.176 81.8599 133.924 97.4919 133.924L103.04 154.832C107.256 170.248 112.016 190.272 100.464 201.296C99.1941 202.513 98.1829 203.974 97.4908 205.592C96.7987 207.209 96.4399 208.949 96.4359 210.708C96.4401 214.478 97.9397 218.093 100.606 220.758C103.271 223.424 106.886 224.924 110.656 224.928C113.327 224.93 115.972 224.406 118.44 223.385C120.908 222.365 123.151 220.868 125.04 218.98C126.93 217.092 128.428 214.85 129.451 212.383C130.474 209.916 131 207.271 131 204.6V118.308C131 110.282 132.581 102.334 135.652 94.9184C138.724 87.503 143.226 80.7651 148.902 75.0896C154.577 69.4141 161.315 64.912 168.73 61.8405C176.146 58.7689 184.094 57.188 192.12 57.188C200.146 57.188 208.094 58.7689 215.51 61.8405C222.925 64.912 229.663 69.4141 235.338 75.0896C241.014 80.7651 245.516 87.503 248.587 94.9184C251.659 102.334 253.24 110.282 253.24 118.308V204.6C253.24 209.991 255.382 215.162 259.194 218.974C263.006 222.786 268.177 224.928 273.568 224.928C277.338 224.924 280.952 223.424 283.617 220.758C286.282 218.092 287.781 214.478 287.784 210.708C287.78 208.949 287.421 207.209 286.729 205.592C286.037 203.974 285.026 202.513 283.756 201.296C272.204 190.272 276.956 170.248 281.184 154.832L286.732 133.924C302.364 133.924 302.64 161.176 301.192 166.46C300.571 168.723 300.574 171.111 301.202 173.372C301.829 175.633 303.057 177.681 304.756 179.3C308.994 183.362 312.368 188.237 314.678 193.634C316.987 199.031 318.184 204.838 318.196 210.708C318.182 222.543 313.474 233.888 305.104 242.255C296.734 250.622 285.387 255.326 273.552 255.336H266.888C265.097 255.336 263.323 255.69 261.669 256.377C260.014 257.065 258.512 258.072 257.249 259.342C255.985 260.612 254.984 262.118 254.305 263.776C253.625 265.433 253.279 267.209 253.288 269C253.295 270.851 253.708 272.678 254.498 274.352C255.287 276.027 256.433 277.508 257.856 278.692C259.262 279.901 260.924 280.776 262.717 281.251C264.51 281.726 266.387 281.79 268.208 281.436C302.724 274.04 295.132 297.96 324.608 295.18C324.608 295.18 323.66 296.852 322.86 298.152C309.288 320.252 273.728 297.352 255.352 304.952C216.616 320.952 203.124 282.644 192.124 282.644L192.096 282.636Z" fill="#B9B9B9" stroke="#292929" stroke-width="4" stroke-linecap="round" stroke-linejoin="round"/>
<path d="M192.096 282.636C181.092 282.636 167.604 320.928 128.868 304.944C110.488 297.344 74.9279 320.252 61.3559 298.144C60.5559 296.844 59.6079 295.172 59.6079 295.172C80.1799 309.444 94.7439 285.972 129.712 292.828C179.368 302.572 160.276 273.656 192.112 282.628" fill="white"/>
<path d="M192.096 282.636C181.092 282.636 167.604 320.928 128.868 304.944C110.488 297.344 74.9279 320.252 61.3559 298.144C60.5559 296.844 59.6079 295.172 59.6079 295.172C80.1799 309.444 94.7439 285.972 129.712 292.828C179.368 302.572 160.276 273.656 192.112 282.628" stroke="#292929" stroke-width="4" stroke-linecap="round" stroke-linejoin="round"/>
<path d="M254.512 292.836C204.856 302.58 223.948 273.664 192.112 282.636C203.112 282.636 216.604 320.928 255.34 304.944C273.716 297.344 309.276 320.252 322.848 298.144C323.648 296.844 324.596 295.172 324.596 295.172C303.944 309.676 289.564 285.956 254.512 292.836Z" fill="white" stroke="#292929" stroke-width="4" stroke-linecap="round" stroke-linejoin="round"/>
<path d="M192.104 176.104C197.959 176.23 203.662 174.234 208.161 170.485C212.66 166.735 215.652 161.486 216.584 155.704C216.628 155.356 216.587 155.002 216.465 154.673C216.342 154.344 216.141 154.05 215.88 153.816C215.611 153.576 215.292 153.398 214.946 153.296C214.6 153.195 214.236 153.171 213.88 153.228C199.467 155.536 184.778 155.536 170.364 153.228C170.008 153.171 169.644 153.194 169.297 153.296C168.951 153.397 168.633 153.575 168.364 153.816C168.102 154.05 167.901 154.344 167.777 154.673C167.654 155.001 167.612 155.355 167.656 155.704C168.588 161.48 171.575 166.725 176.067 170.473C180.56 174.221 186.255 176.221 192.104 176.104V176.104Z" fill="white" stroke="#292929" stroke-width="4" stroke-linecap="round" stroke-linejoin="round"/>
<path d="M285.168 174.468C285.168 176.129 285.638 177.722 286.474 178.897C287.311 180.072 288.445 180.732 289.628 180.732C290.811 180.732 291.945 180.072 292.782 178.897C293.618 177.722 294.088 176.129 294.088 174.468C294.088 172.807 293.618 171.213 292.782 170.039C291.945 168.864 290.811 168.204 289.628 168.204C288.445 168.204 287.311 168.864 286.474 170.039C285.638 171.213 285.168 172.807 285.168 174.468V174.468Z" fill="white" stroke="#292929" stroke-width="4" stroke-linecap="round" stroke-linejoin="round"/>
<path d="M297.039 204.004C297.5 205.6 298.394 207.001 299.523 207.897C300.653 208.794 301.926 209.113 303.062 208.785C304.199 208.456 305.105 207.508 305.583 206.147C306.061 204.786 306.07 203.125 305.609 201.529C305.148 199.933 304.255 198.533 303.125 197.636C301.996 196.74 300.723 196.42 299.586 196.749C298.45 197.077 297.543 198.026 297.065 199.386C296.588 200.747 296.578 202.408 297.039 204.004Z" fill="white" stroke="#292929" stroke-width="4" stroke-linecap="round" stroke-linejoin="round"/>
<path d="M287.25 237.462C288.063 238.322 289.322 238.692 290.75 238.492C292.178 238.293 293.659 237.539 294.865 236.397C296.072 235.255 296.907 233.819 297.185 232.404C297.464 230.989 297.163 229.712 296.351 228.852C295.538 227.993 294.279 227.623 292.85 227.822C291.422 228.022 289.942 228.776 288.735 229.917C287.528 231.059 286.694 232.496 286.415 233.91C286.137 235.325 286.437 236.603 287.25 237.462V237.462Z" fill="white" stroke="#292929" stroke-width="4" stroke-linecap="round" stroke-linejoin="round"/>
<path d="M162.272 107.484C162.272 115.396 165.415 122.984 171.01 128.578C176.604 134.173 184.192 137.316 192.104 137.316C200.016 137.316 207.604 134.173 213.198 128.578C218.793 122.984 221.936 115.396 221.936 107.484C221.936 99.5719 218.793 91.984 213.198 86.3894C207.604 80.7949 200.016 77.6519 192.104 77.6519C184.192 77.6519 176.604 80.7949 171.01 86.3894C165.415 91.984 162.272 99.5719 162.272 107.484V107.484Z" fill="white" stroke="#292929" stroke-width="4" stroke-linecap="round" stroke-linejoin="round"/>
<path d="M179.728 107.484C179.728 110.766 181.032 113.914 183.353 116.235C185.674 118.556 188.822 119.86 192.104 119.86C195.386 119.86 198.534 118.556 200.855 116.235C203.176 113.914 204.48 110.766 204.48 107.484C204.48 104.202 203.176 101.054 200.855 98.7328C198.534 96.4118 195.386 95.1079 192.104 95.1079C188.822 95.1079 185.674 96.4118 183.353 98.7328C181.032 101.054 179.728 104.202 179.728 107.484Z" fill="#B9B9B9" stroke="#292929" stroke-width="4" stroke-linecap="round" stroke-linejoin="round"/>
<path d="M160.752 204.148C160.759 201.995 159.999 199.91 158.609 198.266C157.218 196.622 155.287 195.528 153.163 195.178C151.038 194.829 148.859 195.247 147.015 196.359C145.171 197.47 143.783 199.202 143.1 201.244C140.756 206.932 134.096 208.692 131.252 200.92C130.662 199.374 129.661 198.018 128.356 197C127.051 195.982 125.493 195.34 123.85 195.144C122.207 194.948 120.541 195.204 119.033 195.886C117.525 196.568 116.232 197.649 115.295 199.013C114.357 200.376 113.81 201.97 113.712 203.622C113.615 205.274 113.971 206.921 114.742 208.385C115.514 209.85 116.671 211.075 118.088 211.929C119.505 212.784 121.129 213.234 122.784 213.232L127.216 227.156V248.092C127.161 251.007 125.964 253.784 123.883 255.827C121.801 257.869 119.002 259.013 116.086 259.013C113.17 259.013 110.371 257.869 108.29 255.827C106.208 253.784 105.011 251.007 104.956 248.092C104.95 238.411 101.1 229.13 94.2523 222.287C87.405 215.444 78.1206 211.6 68.4401 211.6H53.1881C43.5042 211.6 34.2168 215.446 27.3688 222.294C20.5209 229.141 16.6732 238.428 16.6721 248.112V277.16C16.6728 281.275 18.2798 285.227 21.1511 288.174C24.0223 291.121 27.9308 292.831 32.0441 292.94V323.872C31.2518 323.636 30.4307 323.511 29.6041 323.5C27.8201 323.492 26.0727 324.006 24.5775 324.98C23.0823 325.953 21.9046 327.342 21.1896 328.977C20.4747 330.611 20.2537 332.419 20.5539 334.178C20.8542 335.937 21.6626 337.569 22.8794 338.874C24.0962 340.178 25.6682 341.098 27.4016 341.52C29.135 341.942 30.9541 341.848 32.6344 341.248C34.3147 340.649 35.7829 339.571 36.8579 338.147C37.9329 336.723 38.5678 335.016 38.6841 333.236H38.8041C38.9066 334.787 39.4043 336.287 40.2498 337.592C41.0953 338.897 42.2606 339.964 43.6348 340.692C45.009 341.419 46.5465 341.783 48.1011 341.749C49.6557 341.715 51.1757 341.283 52.5165 340.496C53.8574 339.708 54.9745 338.591 55.7617 337.25C56.549 335.909 56.9801 334.389 57.0141 332.835C57.0482 331.28 56.684 329.743 55.9562 328.368C55.2284 326.994 54.1612 325.829 52.8561 324.984V302.268C52.8561 300.281 53.6454 298.375 55.0505 296.97C56.4555 295.565 58.3611 294.776 60.3481 294.776C62.3351 294.776 64.2407 295.565 65.6458 296.97C67.0508 298.375 67.8401 300.281 67.8401 302.268V324.108C66.2873 324.704 64.927 325.713 63.906 327.026C62.8851 328.339 62.2423 329.907 62.0472 331.558C61.852 333.21 62.1119 334.884 62.7988 336.399C63.4857 337.914 64.5735 339.212 65.9446 340.154C67.3157 341.095 68.918 341.644 70.5784 341.742C72.2389 341.839 73.8944 341.481 75.366 340.705C76.8377 339.93 78.0695 338.768 78.9286 337.343C79.7876 335.919 80.2411 334.287 80.2401 332.624C80.2366 334.424 80.7646 336.184 81.7578 337.685C82.751 339.186 84.1652 340.361 85.8231 341.061C87.481 341.761 89.3088 341.957 91.0772 341.623C92.8457 341.288 94.4762 340.44 95.7642 339.182C97.0522 337.925 97.9403 336.316 98.3173 334.556C98.6943 332.796 98.5434 330.964 97.8834 329.29C97.2234 327.615 96.0837 326.173 94.6073 325.144C93.1309 324.114 91.3835 323.544 89.5841 323.504V248.092C89.5841 251.572 90.2696 255.018 91.6013 258.233C92.9331 261.448 94.885 264.369 97.3458 266.83C99.8065 269.291 102.728 271.243 105.943 272.575C109.158 273.906 112.604 274.592 116.084 274.592C119.564 274.592 123.01 273.906 126.225 272.575C129.44 271.243 132.362 269.291 134.822 266.83C137.283 264.369 139.235 261.448 140.567 258.233C141.899 255.018 142.584 251.572 142.584 248.092V227.156C145.629 222.692 148.332 218.004 150.668 213.132C151.001 213.184 151.336 213.217 151.672 213.232C152.865 213.232 154.046 212.997 155.148 212.54C156.25 212.084 157.251 211.415 158.094 210.571C158.937 209.727 159.606 208.726 160.062 207.624C160.518 206.522 160.753 205.341 160.752 204.148V204.148Z" fill="#B9B9B9" stroke="#292929" stroke-width="4" stroke-linecap="round" stroke-linejoin="round"/>
<path d="M32.0439 292.924V241.28" stroke="#292929" stroke-width="4" stroke-linecap="round" stroke-linejoin="round"/>
<path d="M110.036 159.168C110.036 184.58 68.9479 217.684 60.8119 217.684C52.6759 217.684 11.5879 184.58 11.5879 159.168C11.5879 133.756 33.6279 116.4 60.8119 116.4C87.9959 116.4 110.036 133.752 110.036 159.168Z" fill="#B9B9B9" stroke="#292929" stroke-width="4" stroke-linecap="round" stroke-linejoin="round"/>
<path d="M68.7721 195.6C66.6606 197.71 63.7974 198.896 60.812 198.896C57.8267 198.896 54.9635 197.71 52.8521 195.6" stroke="#292929" stroke-width="4" stroke-linecap="round" stroke-linejoin="round"/>
<path d="M74.489 176.808C77.2992 178.279 80.7313 178.282 84.0304 176.816C87.3295 175.35 90.2253 172.536 92.0807 168.992C93.9361 165.447 94.5992 161.464 93.924 157.917C93.2489 154.371 91.2908 151.552 88.4806 150.081C85.6704 148.61 82.2382 148.607 78.9391 150.073C75.6401 151.539 72.7443 154.353 70.8889 157.898C69.0335 161.442 68.3704 165.425 69.0456 168.972C69.7207 172.518 71.6788 175.337 74.489 176.808Z" fill="white" stroke="#292929" stroke-width="4" stroke-linecap="round" stroke-linejoin="round"/>
<path d="M29.5376 168.991C31.393 172.535 34.2887 175.35 37.5878 176.816C40.8869 178.282 44.3191 178.279 47.1293 176.807C49.9395 175.336 51.8976 172.517 52.5727 168.971C53.2478 165.425 52.5848 161.441 50.7294 157.897C48.874 154.353 45.9782 151.538 42.6791 150.072C39.38 148.606 35.9479 148.609 33.1377 150.08C30.3274 151.551 28.3694 154.37 27.6942 157.917C27.0191 161.463 27.6822 165.447 29.5376 168.991V168.991Z" fill="white" stroke="#292929" stroke-width="4" stroke-linecap="round" stroke-linejoin="round"/>
<path d="M133.088 53.5439C133.088 57.6159 121.816 60.1559 120.812 63.9119C119.772 67.7999 128.232 75.6279 126.264 79.0319C124.296 82.4359 113.24 79.0559 110.436 81.8599C107.632 84.6639 111.064 95.6879 107.612 97.6839C104.16 99.6799 96.3799 91.1919 92.4919 92.2319C88.7359 93.2359 86.1959 104.508 82.1239 104.508C78.0519 104.508 75.5079 93.2359 71.7519 92.2319C67.8639 91.1919 60.0359 99.6519 56.6319 97.6839C53.2279 95.7159 56.6079 84.6599 53.8079 81.8559C51.0079 79.0519 39.9799 82.4839 37.9799 79.0319C35.9799 75.5799 44.4719 67.7999 43.4319 63.9119C42.4279 60.1559 31.1599 57.6159 31.1599 53.5439C31.1599 49.4719 42.4279 46.9279 43.4319 43.1719C44.4719 39.2839 36.0119 31.4559 37.9839 28.0519C39.9559 24.6479 50.9999 28.0279 53.7999 25.2239C56.5999 22.4199 53.1719 11.3999 56.6239 9.39993C60.0759 7.39993 67.8559 15.8919 71.7439 14.8519C75.4999 13.8479 78.0399 2.57593 82.1159 2.57593C86.1919 2.57593 88.7279 13.8479 92.4879 14.8519C96.3759 15.8919 104.204 7.43193 107.608 9.40393C111.012 11.3759 107.608 22.4239 110.432 25.2279C113.256 28.0319 124.26 24.5999 126.256 28.0519C128.252 31.5039 119.764 39.2839 120.804 43.1719C121.8 46.9279 133.088 49.4679 133.088 53.5439Z" fill="#B9B9B9" stroke="#292929" stroke-width="4" stroke-linecap="round" stroke-linejoin="round"/>
<path d="M57.7241 46.2318C57.7241 47.7308 58.3196 49.1684 59.3796 50.2284C60.4395 51.2884 61.8771 51.8838 63.3761 51.8838C64.8751 51.8838 66.3127 51.2884 67.3727 50.2284C68.4326 49.1684 69.0281 47.7308 69.0281 46.2318C69.0281 44.7328 68.4326 43.2952 67.3727 42.2353C66.3127 41.1753 64.8751 40.5798 63.3761 40.5798C61.8771 40.5798 60.4395 41.1753 59.3796 42.2353C58.3196 43.2952 57.7241 44.7328 57.7241 46.2318V46.2318Z" fill="#292929"/>
<path d="M95.22 46.2318C95.22 47.7308 95.8154 49.1684 96.8754 50.2284C97.9354 51.2884 99.373 51.8838 100.872 51.8838C102.371 51.8838 103.809 51.2884 104.869 50.2284C105.928 49.1684 106.524 47.7308 106.524 46.2318C106.524 44.7328 105.928 43.2952 104.869 42.2353C103.809 41.1753 102.371 40.5798 100.872 40.5798C99.373 40.5798 97.9354 41.1753 96.8754 42.2353C95.8154 43.2952 95.22 44.7328 95.22 46.2318V46.2318Z" fill="#292929"/>
<path d="M82.1241 71.7278C84.9947 71.7912 87.7913 70.8135 89.997 68.9753C92.2028 67.1372 93.6688 64.5628 94.1241 61.7278C94.1456 61.5575 94.1255 61.3845 94.0656 61.2236C94.0057 61.0627 93.9078 60.9187 93.7801 60.8038C93.6471 60.6856 93.4894 60.5984 93.3186 60.5485C93.1477 60.4987 92.9679 60.4875 92.7921 60.5158C85.7305 61.6478 78.5337 61.6478 71.4721 60.5158C71.2964 60.4858 71.1161 60.4961 70.9449 60.546C70.7738 60.5959 70.6162 60.6841 70.4841 60.8038C70.3558 60.9183 70.2571 61.0621 70.1965 61.223C70.1358 61.3839 70.1151 61.5571 70.1361 61.7278C70.5919 64.5603 72.0564 67.1326 74.2595 68.9703C76.4626 70.8081 79.2558 71.7874 82.1241 71.7278V71.7278Z" fill="white" stroke="#292929" stroke-width="4" stroke-linecap="round" stroke-linejoin="round"/>
</svg>
