<svg width="320" height="328" viewBox="0 0 320 328" fill="none" xmlns="http://www.w3.org/2000/svg">
<path d="M0 167.08C0 209.515 16.8571 250.212 46.8629 280.217C76.8687 310.223 117.565 327.08 160 327.08C202.435 327.08 243.131 310.223 273.137 280.217C303.143 250.212 320 209.515 320 167.08C320 124.646 303.143 83.9491 273.137 53.9432C243.131 23.9374 202.435 7.08032 160 7.08032C117.565 7.08032 76.8687 23.9374 46.8629 53.9432C16.8571 83.9491 0 124.646 0 167.08V167.08Z" fill="#E7E7E7"/>
<path d="M110.956 300.437C110.956 302.028 116.856 303.554 127.358 304.679C137.86 305.804 152.104 306.437 166.956 306.437C181.808 306.437 196.052 305.804 206.554 304.679C217.056 303.554 222.956 302.028 222.956 300.437C222.956 298.845 217.056 297.319 206.554 296.194C196.052 295.069 181.808 294.437 166.956 294.437C152.104 294.437 137.86 295.069 127.358 296.194C116.856 297.319 110.956 298.845 110.956 300.437Z" fill="#B9B9B9"/>
<path d="M97.032 256.964H107.768C109.192 256.964 110.557 256.399 111.564 255.392C112.57 254.385 113.136 253.02 113.136 251.596V189.864C113.136 188.441 112.57 187.075 111.564 186.069C110.557 185.062 109.192 184.496 107.768 184.496H97.032V256.964Z" fill="white" stroke="#292929" stroke-width="4" stroke-linecap="round" stroke-linejoin="round"/>
<path d="M174.872 176.444C176.872 156.388 179.532 113.368 162.792 113.368C159.589 113.368 156.518 114.641 154.253 116.905C151.988 119.17 150.716 122.242 150.716 125.444V129.472C150.716 158.996 137.916 189.872 113.116 189.872V251.604H116.284C131.764 251.604 139.084 262.34 166.82 262.34H213.792C216.639 262.34 219.37 261.209 221.383 259.196C223.397 257.183 224.528 254.452 224.528 251.604C224.528 248.757 223.397 246.026 221.383 244.013C219.37 242 216.639 240.868 213.792 240.868H219.16C222.007 240.868 224.738 239.737 226.751 237.724C228.765 235.711 229.896 232.98 229.896 230.132C229.896 227.285 228.765 224.554 226.751 222.541C224.738 220.528 222.007 219.396 219.16 219.396H224.528C227.375 219.396 230.106 218.265 232.119 216.252C234.133 214.239 235.264 211.508 235.264 208.66C235.264 205.813 234.133 203.082 232.119 201.069C230.106 199.056 227.375 197.924 224.528 197.924H229.896C232.743 197.924 235.474 196.793 237.487 194.78C239.501 192.767 240.632 190.036 240.632 187.188C240.632 184.341 239.501 181.61 237.487 179.597C235.474 177.584 232.743 176.452 229.896 176.452L174.872 176.444Z" fill="white"/>
<path d="M164.136 176.444H174.872" stroke="#292929" stroke-width="4" stroke-linecap="round" stroke-linejoin="round"/>
<path d="M213.792 240.86H208.424" stroke="#292929" stroke-width="4" stroke-linecap="round" stroke-linejoin="round"/>
<path d="M219.16 219.388H213.792" stroke="#292929" stroke-width="4" stroke-linecap="round" stroke-linejoin="round"/>
<path d="M224.528 197.917H219.16" stroke="#292929" stroke-width="4" stroke-linecap="round" stroke-linejoin="round"/>
<path d="M174.872 176.444C176.872 156.388 179.532 113.368 162.792 113.368C159.589 113.368 156.518 114.641 154.253 116.905C151.988 119.17 150.716 122.242 150.716 125.444V129.472C150.716 158.996 137.916 189.872 113.116 189.872V251.604H116.284C131.764 251.604 139.084 262.34 166.82 262.34H213.792C216.639 262.34 219.37 261.209 221.383 259.196C223.397 257.183 224.528 254.452 224.528 251.604C224.528 248.757 223.397 246.026 221.383 244.013C219.37 242 216.639 240.868 213.792 240.868H219.16C222.007 240.868 224.738 239.737 226.751 237.724C228.765 235.711 229.896 232.98 229.896 230.132C229.896 227.285 228.765 224.554 226.751 222.541C224.738 220.528 222.007 219.396 219.16 219.396H224.528C227.375 219.396 230.106 218.265 232.119 216.252C234.133 214.239 235.264 211.508 235.264 208.66C235.264 205.813 234.133 203.082 232.119 201.069C230.106 199.056 227.375 197.924 224.528 197.924H229.896C232.743 197.924 235.474 196.793 237.487 194.78C239.501 192.767 240.632 190.036 240.632 187.188C240.632 184.341 239.501 181.61 237.487 179.597C235.474 177.584 232.743 176.452 229.896 176.452L174.872 176.444Z" stroke="#292929" stroke-width="4" stroke-linecap="round" stroke-linejoin="round"/>
<path d="M59.4561 179.128H97.0321V262.336H59.4561V179.128Z" fill="#B9B9B9"/>
<path d="M59.4561 179.128H97.0321V262.336H59.4561V179.128Z" stroke="#292929" stroke-width="4" stroke-linecap="round" stroke-linejoin="round"/>
<path d="M164.652 4.53241L172.868 21.1764C173.192 21.8382 173.673 22.4107 174.269 22.8437C174.865 23.2767 175.559 23.5571 176.288 23.6604L194.66 26.3324C195.498 26.4542 196.286 26.8082 196.934 27.3542C197.581 27.9003 198.063 28.6167 198.325 29.4224C198.587 30.2281 198.618 31.0909 198.415 31.9134C198.212 32.7359 197.783 33.4851 197.176 34.0764L183.88 47.0364C183.357 47.5492 182.966 48.1806 182.739 48.8769C182.512 49.5732 182.456 50.314 182.576 51.0364L185.712 69.3404C185.86 70.1769 185.77 71.0381 185.453 71.826C185.136 72.614 184.603 73.297 183.917 73.7972C183.23 74.2974 182.417 74.5948 181.57 74.6555C180.722 74.7162 179.875 74.5377 179.124 74.1404L162.692 65.4924C162.04 65.1494 161.315 64.9702 160.578 64.9702C159.841 64.9702 159.116 65.1494 158.464 65.4924L142.032 74.1324C141.281 74.5297 140.434 74.7082 139.587 74.6475C138.739 74.5868 137.926 74.2894 137.24 73.7892C136.553 73.289 136.021 72.606 135.703 71.8181C135.386 71.0301 135.296 70.1689 135.444 69.3324L138.58 51.0284C138.701 50.3059 138.646 49.5649 138.419 48.8684C138.192 48.1719 137.8 47.5407 137.276 47.0284L124 34.0604C123.393 33.4691 122.964 32.7199 122.761 31.8974C122.558 31.0749 122.589 30.2121 122.851 29.4064C123.113 28.6007 123.595 27.8843 124.243 27.3382C124.89 26.7922 125.678 26.4382 126.516 26.3164L144.888 23.6444C145.618 23.5411 146.311 23.2607 146.907 22.8277C147.503 22.3947 147.984 21.8222 148.308 21.1604L156.508 4.53241C156.883 3.77232 157.463 3.13228 158.182 2.68474C158.902 2.23719 159.733 2 160.58 2C161.428 2 162.258 2.23719 162.978 2.68474C163.697 3.13228 164.277 3.77232 164.652 4.53241V4.53241Z" fill="#B9B9B9"/>
<path d="M164.652 4.53241L172.868 21.1764C173.192 21.8382 173.673 22.4107 174.269 22.8437C174.865 23.2767 175.559 23.5571 176.288 23.6604L194.66 26.3324C195.498 26.4542 196.286 26.8082 196.934 27.3542C197.581 27.9003 198.063 28.6167 198.325 29.4224C198.587 30.2281 198.618 31.0909 198.415 31.9134C198.212 32.7359 197.783 33.4851 197.176 34.0764L183.88 47.0364C183.357 47.5492 182.966 48.1806 182.739 48.8769C182.512 49.5732 182.456 50.314 182.576 51.0364L185.712 69.3404C185.86 70.1769 185.77 71.0381 185.453 71.826C185.136 72.614 184.603 73.297 183.917 73.7972C183.23 74.2974 182.417 74.5948 181.57 74.6555C180.722 74.7162 179.875 74.5377 179.124 74.1404L162.692 65.4924C162.04 65.1494 161.315 64.9702 160.578 64.9702C159.841 64.9702 159.116 65.1494 158.464 65.4924L142.032 74.1324C141.281 74.5297 140.434 74.7082 139.587 74.6475C138.739 74.5868 137.926 74.2894 137.24 73.7892C136.553 73.289 136.021 72.606 135.703 71.8181C135.386 71.0301 135.296 70.1689 135.444 69.3324L138.58 51.0284C138.701 50.3059 138.646 49.5649 138.419 48.8684C138.192 48.1719 137.8 47.5407 137.276 47.0284L124 34.0604C123.393 33.4691 122.964 32.7199 122.761 31.8974C122.558 31.0749 122.589 30.2121 122.851 29.4064C123.113 28.6007 123.595 27.8843 124.243 27.3382C124.89 26.7922 125.678 26.4382 126.516 26.3164L144.888 23.6444C145.618 23.5411 146.311 23.2607 146.907 22.8277C147.503 22.3947 147.984 21.8222 148.308 21.1604L156.508 4.53241C156.883 3.77232 157.463 3.13228 158.182 2.68474C158.902 2.23719 159.733 2 160.58 2C161.428 2 162.258 2.23719 162.978 2.68474C163.697 3.13228 164.277 3.77232 164.652 4.53241V4.53241Z" stroke="#292929" stroke-width="4" stroke-linecap="round" stroke-linejoin="round"/>
<path d="M69.8839 40.4405L82.8679 48.6205C83.3826 48.9461 83.969 49.141 84.5762 49.1884C85.1834 49.2359 85.7929 49.1343 86.3519 48.8925L100.456 42.8325C101.1 42.5553 101.808 42.4639 102.501 42.5687C103.194 42.6734 103.843 42.9702 104.376 43.4252C104.909 43.8803 105.304 44.4755 105.516 45.1435C105.728 45.8114 105.749 46.5254 105.576 47.2045L101.808 62.0845C101.658 62.6731 101.652 63.2894 101.791 63.8807C101.93 64.472 102.211 65.0209 102.608 65.4805L112.732 77.0205C113.194 77.5474 113.499 78.1931 113.614 78.8845C113.728 79.576 113.646 80.2856 113.378 80.9331C113.11 81.5806 112.666 82.1402 112.097 82.5487C111.528 82.9572 110.855 83.1982 110.156 83.2445L94.8439 84.2565C94.2363 84.2971 93.6476 84.4847 93.1285 84.8031C92.6094 85.1215 92.1755 85.5613 91.8639 86.0845L84.0159 99.2845C83.6581 99.8871 83.1387 100.377 82.5165 100.7C81.8943 101.022 81.1942 101.164 80.4956 101.109C79.797 101.054 79.1277 100.805 78.5636 100.389C77.9995 99.9731 77.5631 99.4076 77.3039 98.7565L71.6039 84.5045C71.3792 83.9389 71.0198 83.4367 70.5569 83.0414C70.0941 82.6462 69.5417 82.3699 68.9479 82.2365L53.9999 78.8405C53.3168 78.686 52.6907 78.3435 52.1922 77.8516C51.6937 77.3598 51.3428 76.7382 51.1792 76.0573C51.0157 75.3763 51.0459 74.6632 51.2666 73.9986C51.4873 73.334 51.8895 72.7444 52.4279 72.2965L64.2199 62.4725C64.6888 62.0841 65.0556 61.5869 65.2885 61.0243C65.5213 60.4617 65.6131 59.8507 65.5559 59.2445L64.1519 43.9605C64.088 43.2638 64.2201 42.5632 64.5334 41.9376C64.8467 41.3121 65.3286 40.7866 65.9248 40.4205C66.521 40.0544 67.2076 39.8622 67.9072 39.8658C68.6068 39.8693 69.2915 40.0684 69.8839 40.4405V40.4405Z" fill="#B9B9B9"/>
<path d="M69.8839 40.4405L82.8679 48.6205C83.3826 48.9461 83.969 49.141 84.5762 49.1884C85.1834 49.2359 85.7929 49.1343 86.3519 48.8925L100.456 42.8325C101.1 42.5553 101.808 42.4639 102.501 42.5687C103.194 42.6734 103.843 42.9702 104.376 43.4252C104.909 43.8803 105.304 44.4755 105.516 45.1435C105.728 45.8114 105.749 46.5254 105.576 47.2045L101.808 62.0845C101.658 62.6731 101.652 63.2894 101.791 63.8807C101.93 64.472 102.211 65.0209 102.608 65.4805L112.732 77.0205C113.194 77.5474 113.499 78.1931 113.614 78.8845C113.728 79.576 113.646 80.2856 113.378 80.9331C113.11 81.5806 112.666 82.1402 112.097 82.5487C111.528 82.9572 110.855 83.1982 110.156 83.2445L94.8439 84.2565C94.2363 84.2971 93.6476 84.4847 93.1285 84.8031C92.6094 85.1215 92.1755 85.5613 91.8639 86.0845L84.0159 99.2845C83.6581 99.8871 83.1387 100.377 82.5165 100.7C81.8943 101.022 81.1942 101.164 80.4956 101.109C79.797 101.054 79.1277 100.805 78.5636 100.389C77.9995 99.9731 77.5631 99.4076 77.3039 98.7565L71.6039 84.5045C71.3792 83.9389 71.0198 83.4367 70.5569 83.0414C70.0941 82.6462 69.5417 82.3699 68.9479 82.2365L53.9999 78.8405C53.3168 78.686 52.6907 78.3435 52.1922 77.8516C51.6937 77.3598 51.3428 76.7382 51.1792 76.0573C51.0157 75.3763 51.0459 74.6632 51.2666 73.9986C51.4873 73.334 51.8895 72.7444 52.4279 72.2965L64.2199 62.4725C64.6888 62.0841 65.0556 61.5869 65.2885 61.0243C65.5213 60.4617 65.6131 59.8507 65.5559 59.2445L64.1519 43.9605C64.088 43.2638 64.2201 42.5632 64.5334 41.9376C64.8467 41.3121 65.3286 40.7866 65.9248 40.4205C66.521 40.0544 67.2076 39.8622 67.9072 39.8658C68.6068 39.8693 69.2915 40.0684 69.8839 40.4405V40.4405Z" stroke="#292929" stroke-width="4" stroke-linecap="round" stroke-linejoin="round"/>
<path d="M19.0879 115.132L30.8479 115.732C31.3144 115.756 31.7797 115.666 32.2034 115.469C32.6271 115.273 32.9966 114.976 33.2799 114.604L40.4399 105.256C40.7668 104.83 41.2066 104.503 41.7097 104.313C42.2127 104.123 42.7588 104.078 43.2862 104.182C43.8135 104.287 44.3012 104.537 44.6938 104.904C45.0865 105.271 45.3685 105.741 45.5079 106.26L48.5719 117.632C48.6942 118.082 48.9236 118.496 49.2406 118.838C49.5575 119.18 49.9525 119.44 50.3919 119.596L61.4999 123.52C62.0064 123.7 62.4527 124.017 62.7883 124.436C63.1239 124.856 63.3355 125.361 63.3992 125.894C63.4629 126.428 63.3761 126.968 63.1486 127.455C62.9211 127.942 62.562 128.355 62.1119 128.648L52.2439 135.076C51.8532 135.332 51.5302 135.678 51.3024 136.086C51.0746 136.493 50.9489 136.95 50.9359 137.416L50.6399 149.188C50.6263 149.726 50.4627 150.248 50.1675 150.697C49.8724 151.146 49.4575 151.504 48.9697 151.729C48.482 151.955 47.9409 152.04 47.4076 151.974C46.8743 151.908 46.3701 151.694 45.9519 151.356L36.7999 143.96C36.4369 143.666 36.0074 143.464 35.5488 143.373C35.0902 143.281 34.6162 143.303 34.1679 143.436L22.8799 146.792C22.3649 146.946 21.817 146.953 21.2984 146.811C20.7798 146.67 20.3113 146.386 19.9461 145.991C19.5808 145.597 19.3334 145.108 19.2319 144.58C19.1304 144.052 19.1789 143.506 19.3719 143.004L23.5719 132.004C23.7407 131.568 23.8002 131.098 23.7451 130.633C23.69 130.169 23.5221 129.725 23.2559 129.34L16.5799 119.64C16.2763 119.199 16.102 118.681 16.0767 118.145C16.0514 117.61 16.1761 117.078 16.4368 116.609C16.6974 116.141 17.0837 115.754 17.5521 115.493C18.0205 115.232 18.5524 115.107 19.0879 115.132V115.132Z" fill="#B9B9B9"/>
<path d="M19.0879 115.132L30.8479 115.732C31.3144 115.756 31.7797 115.666 32.2034 115.469C32.6271 115.273 32.9966 114.976 33.2799 114.604L40.4399 105.256C40.7668 104.83 41.2066 104.503 41.7097 104.313C42.2127 104.123 42.7588 104.078 43.2862 104.182C43.8135 104.287 44.3012 104.537 44.6938 104.904C45.0865 105.271 45.3685 105.741 45.5079 106.26L48.5719 117.632C48.6942 118.082 48.9236 118.496 49.2406 118.838C49.5575 119.18 49.9525 119.44 50.3919 119.596L61.4999 123.52C62.0064 123.7 62.4527 124.017 62.7883 124.436C63.1239 124.856 63.3355 125.361 63.3992 125.894C63.4629 126.428 63.3761 126.968 63.1486 127.455C62.9211 127.942 62.562 128.355 62.1119 128.648L52.2439 135.076C51.8532 135.332 51.5302 135.678 51.3024 136.086C51.0746 136.493 50.9489 136.95 50.9359 137.416L50.6399 149.188C50.6263 149.726 50.4627 150.248 50.1675 150.697C49.8724 151.146 49.4575 151.504 48.9697 151.729C48.482 151.955 47.9409 152.04 47.4076 151.974C46.8743 151.908 46.3701 151.694 45.9519 151.356L36.7999 143.96C36.4369 143.666 36.0074 143.464 35.5488 143.373C35.0902 143.281 34.6162 143.303 34.1679 143.436L22.8799 146.792C22.3649 146.946 21.817 146.953 21.2984 146.811C20.7798 146.67 20.3113 146.386 19.9461 145.991C19.5808 145.597 19.3334 145.108 19.2319 144.58C19.1304 144.052 19.1789 143.506 19.3719 143.004L23.5719 132.004C23.7407 131.568 23.8002 131.098 23.7451 130.633C23.69 130.169 23.5221 129.725 23.2559 129.34L16.5799 119.64C16.2763 119.199 16.102 118.681 16.0767 118.145C16.0514 117.61 16.1761 117.078 16.4368 116.609C16.6974 116.141 17.0837 115.754 17.5521 115.493C18.0205 115.232 18.5524 115.107 19.0879 115.132V115.132Z" stroke="#292929" stroke-width="4" stroke-linecap="round" stroke-linejoin="round"/>
<path d="M258.424 43.9605C258.489 43.2626 258.357 42.5604 258.043 41.9336C257.73 41.3068 257.247 40.7803 256.649 40.4139C256.052 40.0475 255.364 39.8557 254.663 39.8604C253.962 39.8651 253.276 40.0661 252.684 40.4405L239.7 48.6205C239.185 48.9461 238.599 49.141 237.992 49.1884C237.384 49.2358 236.775 49.1342 236.216 48.8925L222.112 42.8325C221.468 42.5569 220.76 42.4668 220.068 42.5722C219.376 42.6776 218.727 42.9744 218.195 43.4291C217.662 43.8837 217.267 44.4781 217.055 45.1453C216.842 45.8124 216.82 46.5256 216.992 47.2045L220.76 62.0845C220.911 62.673 220.917 63.2895 220.778 63.881C220.639 64.4725 220.358 65.0214 219.96 65.4805L209.84 77.0205C209.378 77.5472 209.073 78.1925 208.958 78.8836C208.844 79.5747 208.925 80.284 209.192 80.9314C209.46 81.5788 209.903 82.1385 210.472 82.5472C211.041 82.956 211.713 83.1975 212.412 83.2445L227.728 84.2565C228.335 84.297 228.923 84.4846 229.441 84.8031C229.96 85.1216 230.393 85.5613 230.704 86.0845L238.552 99.2845C238.91 99.887 239.429 100.377 240.051 100.7C240.673 101.022 241.373 101.164 242.072 101.109C242.771 101.054 243.44 100.805 244.004 100.389C244.568 99.9731 245.005 99.4076 245.264 98.7565L250.964 84.5045C251.189 83.9391 251.548 83.437 252.011 83.0418C252.474 82.6466 253.026 82.3702 253.62 82.2365L268.592 78.8485C269.275 78.6946 269.902 78.3524 270.401 77.8608C270.9 77.3692 271.251 76.7477 271.415 76.0667C271.579 75.3856 271.549 74.6723 271.329 74.0074C271.108 73.3425 270.706 72.7526 270.168 72.3045L258.372 62.4805C257.903 62.0916 257.537 61.5944 257.304 61.0319C257.071 60.4694 256.979 59.8586 257.036 59.2525L258.424 43.9605Z" fill="#B9B9B9"/>
<path d="M258.424 43.9605C258.489 43.2626 258.357 42.5604 258.043 41.9336C257.73 41.3068 257.247 40.7803 256.649 40.4139C256.052 40.0475 255.364 39.8557 254.663 39.8604C253.962 39.8651 253.276 40.0661 252.684 40.4405L239.7 48.6205C239.185 48.9461 238.599 49.141 237.992 49.1884C237.384 49.2358 236.775 49.1342 236.216 48.8925L222.112 42.8325C221.469 42.5557 220.761 42.4645 220.068 42.5691C219.376 42.6738 218.726 42.9701 218.194 43.4246C217.661 43.8791 217.266 44.4736 217.054 45.1409C216.841 45.8082 216.82 46.5216 216.992 47.2005L220.76 62.0845C220.911 62.673 220.917 63.2895 220.778 63.881C220.639 64.4725 220.358 65.0214 219.96 65.4805L209.84 77.0205C209.378 77.5472 209.073 78.1925 208.958 78.8836C208.844 79.5747 208.925 80.284 209.192 80.9314C209.46 81.5788 209.903 82.1385 210.472 82.5472C211.041 82.956 211.713 83.1975 212.412 83.2445L227.728 84.2565C228.335 84.297 228.923 84.4846 229.441 84.8031C229.96 85.1216 230.393 85.5613 230.704 86.0845L238.552 99.2845C238.91 99.887 239.429 100.377 240.051 100.7C240.673 101.022 241.373 101.164 242.072 101.109C242.771 101.054 243.44 100.805 244.004 100.389C244.568 99.9731 245.005 99.4076 245.264 98.7565L250.964 84.5045C251.189 83.9391 251.548 83.437 252.011 83.0418C252.474 82.6466 253.026 82.3702 253.62 82.2365L268.592 78.8485C269.275 78.6946 269.902 78.3524 270.401 77.8608C270.9 77.3692 271.251 76.7477 271.415 76.0667C271.579 75.3856 271.549 74.6723 271.329 74.0074C271.108 73.3425 270.706 72.7526 270.168 72.3045L258.372 62.4805C257.903 62.0916 257.537 61.5944 257.304 61.0319C257.071 60.4694 256.979 59.8586 257.036 59.2525L258.424 43.9605Z" stroke="#292929" stroke-width="4" stroke-linecap="round" stroke-linejoin="round"/>
<path d="M306 119.64C306.306 119.198 306.481 118.679 306.507 118.143C306.533 117.606 306.408 117.072 306.146 116.603C305.884 116.134 305.496 115.747 305.025 115.487C304.555 115.227 304.021 115.104 303.484 115.132L291.724 115.732C291.257 115.757 290.792 115.667 290.368 115.471C289.944 115.274 289.575 114.977 289.292 114.604L282.128 105.256C281.801 104.83 281.361 104.503 280.858 104.313C280.355 104.123 279.809 104.078 279.282 104.182C278.754 104.287 278.267 104.537 277.874 104.904C277.481 105.271 277.199 105.741 277.06 106.26L274 117.632C273.878 118.082 273.648 118.496 273.331 118.838C273.014 119.18 272.619 119.44 272.18 119.596L261.076 123.52C260.568 123.698 260.121 124.015 259.784 124.435C259.448 124.854 259.235 125.36 259.172 125.894C259.108 126.428 259.195 126.969 259.424 127.456C259.652 127.943 260.012 128.356 260.464 128.648L270.328 135.076C270.72 135.331 271.044 135.677 271.272 136.084C271.5 136.492 271.625 136.949 271.636 137.416L271.936 149.188C271.95 149.726 272.113 150.248 272.408 150.697C272.704 151.146 273.118 151.504 273.606 151.729C274.094 151.955 274.635 152.04 275.168 151.974C275.702 151.908 276.206 151.694 276.624 151.356L285.788 143.96C286.15 143.666 286.579 143.464 287.037 143.373C287.495 143.282 287.968 143.304 288.416 143.436L299.704 146.792C300.219 146.946 300.767 146.952 301.285 146.81C301.804 146.668 302.272 146.384 302.637 145.99C303.003 145.596 303.251 145.108 303.353 144.58C303.455 144.052 303.408 143.507 303.216 143.004L299.012 132.004C298.845 131.568 298.786 131.098 298.841 130.633C298.896 130.169 299.063 129.726 299.328 129.34L306 119.64Z" fill="#B9B9B9"/>
<path d="M306 119.64C306.306 119.198 306.481 118.679 306.507 118.143C306.533 117.606 306.408 117.072 306.146 116.603C305.884 116.134 305.496 115.747 305.025 115.487C304.555 115.227 304.021 115.104 303.484 115.132L291.724 115.732C291.257 115.757 290.792 115.667 290.368 115.471C289.944 115.274 289.575 114.977 289.292 114.604L282.128 105.256C281.801 104.831 281.361 104.505 280.859 104.316C280.356 104.127 279.811 104.082 279.284 104.186C278.758 104.291 278.271 104.54 277.878 104.907C277.486 105.273 277.204 105.742 277.064 106.26L274 117.632C273.878 118.082 273.648 118.496 273.331 118.838C273.014 119.18 272.619 119.44 272.18 119.596L261.076 123.52C260.568 123.698 260.121 124.015 259.784 124.435C259.448 124.854 259.235 125.36 259.172 125.894C259.108 126.428 259.195 126.969 259.424 127.456C259.652 127.943 260.012 128.356 260.464 128.648L270.328 135.076C270.72 135.331 271.044 135.677 271.272 136.085C271.5 136.492 271.625 136.949 271.636 137.416L271.936 149.188C271.95 149.726 272.113 150.248 272.408 150.697C272.704 151.146 273.118 151.504 273.606 151.729C274.094 151.955 274.635 152.04 275.168 151.974C275.702 151.908 276.206 151.694 276.624 151.356L285.788 143.96C286.15 143.666 286.579 143.465 287.037 143.373C287.495 143.282 287.968 143.304 288.416 143.436L299.708 146.792C300.223 146.945 300.77 146.95 301.288 146.808C301.806 146.666 302.273 146.382 302.638 145.988C303.003 145.594 303.25 145.106 303.352 144.579C303.455 144.051 303.407 143.506 303.216 143.004L299.012 132.004C298.845 131.568 298.786 131.098 298.841 130.634C298.896 130.169 299.063 129.726 299.328 129.34L306 119.64Z" stroke="#292929" stroke-width="4" stroke-linecap="round" stroke-linejoin="round"/>
</svg>
